# Blender v2.83.3 OBJ File: 'tent.blend'
# www.blender.org
mtllib tent.mtl
o Cube_Cube.001
v -2.050154 0.000000 1.000000
v -2.050154 2.000000 0.043691
v -2.050154 0.000000 -1.000000
v -2.050154 2.000000 -0.043691
v 2.050154 0.000000 1.000000
v 2.050154 2.000000 0.043691
v 2.050154 0.000000 -1.000000
v 2.050154 2.000000 -0.043691
v -1.837557 0.000000 0.012278
v -2.050154 2.000000 0.000536
v 1.837557 0.000000 0.012278
v 2.050154 2.000000 0.000536
vt 0.375000 0.123465
vt 0.625000 0.123465
vt 0.625000 0.250000
vt 0.375000 0.250000
vt 0.625000 0.500000
vt 0.375000 0.500000
vt 0.375000 0.626535
vt 0.625000 0.626535
vt 0.625000 0.750000
vt 0.375000 0.750000
vt 0.625000 1.000000
vt 0.375000 1.000000
vt 0.125000 0.626535
vt 0.125000 0.750000
vt 0.875000 0.626535
vt 0.875000 0.750000
vt 0.875000 0.500000
vt 0.125000 0.500000
vt 0.375000 0.000000
vt 0.625000 0.000000
vn -0.9756 -0.0982 0.1963
vn 0.0000 0.4314 -0.9022
vn 0.9744 -0.1004 -0.2010
vn 0.0000 0.4314 0.9022
vn 0.0000 -1.0000 0.0000
vn 0.0000 1.0000 0.0000
vn 0.9756 -0.0982 0.1963
vn -0.9744 -0.1004 -0.2010
usemtl Material.001
s off
f 9/1/1 10/2/1 4/3/1 3/4/1
f 3/4/2 4/3/2 8/5/2 7/6/2
f 11/7/3 12/8/3 6/9/3 5/10/3
f 5/10/4 6/9/4 2/11/4 1/12/4
f 9/13/5 11/7/5 5/10/5 1/14/5
f 12/8/6 10/15/6 2/16/6 6/9/6
f 8/5/6 4/17/6 10/15/6 12/8/6
f 3/18/5 7/6/5 11/7/5 9/13/5
f 7/6/7 8/5/7 12/8/7 11/7/7
f 1/19/8 2/20/8 10/2/8 9/1/8
